<?xml version="1.0" standalone="no"?>
<!DOCTYPE svg PUBLIC "-//W3C//DTD SVG 20010904//EN"
 "http://www.w3.org/TR/2001/REC-SVG-20010904/DTD/svg10.dtd">
<svg version="1.0" xmlns="http://www.w3.org/2000/svg"
 width="122.000000pt" height="122.000000pt" viewBox="0 0 122.000000 122.000000"
 preserveAspectRatio="xMidYMid meet">
<metadata>
Created by potrace 1.14, written by Peter Selinger 2001-2017
</metadata>
<g transform="translate(0.000000,122.000000) scale(0.100000,-0.100000)"
fill="#000000" stroke="none">
<path d="M0 610 l0 -610 610 0 610 0 0 610 0 610 -610 0 -610 0 0 -610z m440
201 c0 -5 -6 -11 -12 -14 -9 -3 -4 -23 20 -71 18 -37 37 -66 43 -64 6 2 27 32
46 66 35 62 35 63 14 69 -54 14 -9 23 119 23 127 0 173 -9 120 -23 -17 -4 -20
-14 -20 -66 0 -34 3 -61 6 -61 3 0 34 24 70 53 62 51 79 77 49 77 -8 0 -15 5
-15 10 0 6 28 10 65 10 36 0 65 -4 65 -9 0 -5 -7 -11 -15 -13 -19 -4 -144
-100 -145 -111 0 -14 117 -153 153 -181 l32 -26 -92 0 c-56 0 -93 4 -93 10 0
6 5 10 11 10 6 0 8 7 5 16 -9 22 -79 113 -88 114 -5 0 -8 -27 -8 -61 0 -52 3
-62 20 -66 46 -12 15 -23 -65 -23 -50 0 -85 4 -85 10 0 6 9 10 20 10 20 0 20
5 18 148 -3 145 -3 147 -26 150 -32 5 -45 -8 -103 -104 -46 -76 -50 -88 -47
-136 2 -44 6 -53 23 -56 11 -2 24 -8 30 -13 5 -5 -33 -9 -95 -9 -62 0 -100 4
-94 9 5 5 18 11 29 13 16 2 21 12 23 50 3 40 -4 58 -48 138 -29 50 -60 96 -71
103 -34 21 -21 27 61 27 44 0 80 -4 80 -9z"/>
</g>
</svg>
